<?xml version="1.0" encoding="UTF-8"?><svg xmlns="http://www.w3.org/2000/svg" xmlns:xlink="http://www.w3.org/1999/xlink" contentScriptType="text/ecmascript" width="375pt" zoomAndPan="magnify" contentStyleType="text/css" viewBox="0 0 375 374.999991" height="374.999991pt" preserveAspectRatio="xMidYMid meet" version="1.2"><defs><g/><clipPath xml:id="clip1" id="clip1"><path d="M 52 214 L 85 214 L 85 246.949219 L 52 246.949219 Z M 52 214 "/></clipPath><clipPath xml:id="clip2" id="clip2"><path d="M 91 198 L 123.644531 198 L 123.644531 231 L 91 231 Z M 91 198 "/></clipPath><clipPath xml:id="clip3" id="clip3"><path d="M 37.5 141.949219 L 78 141.949219 L 78 171 L 37.5 171 Z M 37.5 141.949219 "/></clipPath></defs><g xml:id="surface1" id="surface1"><g clip-rule="nonzero" clip-path="url(#clip1)"><path style=" stroke:none;fill-rule:nonzero;fill:rgb(74.899292%,10.5896%,17.248535%);fill-opacity:1;" d="M 84.570312 230.8125 C 84.570312 239.808594 77.316406 247.105469 68.371094 247.105469 C 59.421875 247.105469 52.167969 239.808594 52.167969 230.8125 C 52.167969 221.8125 59.421875 214.519531 68.371094 214.519531 C 77.316406 214.519531 84.570312 221.8125 84.570312 230.8125 "/></g><g clip-rule="nonzero" clip-path="url(#clip2)"><path style=" stroke:none;fill-rule:nonzero;fill:rgb(74.899292%,10.5896%,17.248535%);fill-opacity:1;" d="M 123.613281 214.519531 C 123.613281 223.519531 116.363281 230.8125 107.414062 230.8125 C 98.464844 230.8125 91.214844 223.519531 91.214844 214.519531 C 91.214844 205.523438 98.464844 198.226562 107.414062 198.226562 C 116.363281 198.226562 123.613281 205.523438 123.613281 214.519531 "/></g><path style=" stroke:none;fill-rule:nonzero;fill:rgb(10.978699%,39.219666%,20.388794%);fill-opacity:1;" d="M 80.199219 161.5 C 84.90625 157.460938 91.164062 155.269531 97.347656 155.574219 C 104.167969 155.90625 110.789062 159.261719 115.117188 164.574219 C 115.960938 165.609375 116.71875 166.714844 117.480469 167.820312 C 117.78125 168.261719 118.101562 168.761719 118.023438 169.296875 C 117.964844 169.679688 117.710938 169.996094 117.453125 170.285156 C 114.007812 174.144531 108.8125 175.820312 103.832031 177.15625 C 98.308594 178.640625 92.101562 179.828125 87.140625 176.972656 C 83.117188 174.660156 80.941406 170.261719 79.574219 165.707031 L 79.574219 165.703125 C 79.574219 165.703125 92.304688 174.902344 106.507812 169.347656 C 106.507812 169.347656 88.007812 166.054688 80.199219 161.5 "/><path style=" stroke:none;fill-rule:nonzero;fill:rgb(10.978699%,39.219666%,20.388794%);fill-opacity:1;" d="M 80.765625 160.335938 C 78.199219 154.675781 73.453125 150.027344 67.71875 147.671875 C 61.398438 145.070312 53.992188 145.292969 47.835938 148.265625 C 46.632812 148.847656 45.480469 149.527344 44.328125 150.203125 C 43.867188 150.472656 43.367188 150.792969 43.214844 151.308594 C 43.105469 151.679688 43.203125 152.078125 43.3125 152.449219 C 44.808594 157.410156 48.816406 161.140625 52.765625 164.46875 C 57.144531 168.164062 62.269531 171.878906 67.964844 171.40625 C 72.585938 171.019531 76.40625 167.960938 79.5625 164.414062 C 79.5625 164.414062 64.15625 167.332031 53.625 156.253906 C 53.625 156.253906 71.769531 161.140625 80.765625 160.335938 "/><path style=" stroke:none;fill-rule:nonzero;fill:rgb(20.779419%,12.159729%,9.01947%);fill-opacity:1;" d="M 64.15625 212.246094 C 55.941406 212.246094 49.257812 218.964844 49.257812 227.226562 C 49.257812 235.488281 55.941406 242.210938 64.15625 242.210938 C 72.375 242.210938 79.058594 235.488281 79.058594 227.226562 C 79.058594 218.964844 72.375 212.246094 64.15625 212.246094 Z M 64.15625 244.828125 C 54.507812 244.828125 46.65625 236.933594 46.65625 227.226562 C 46.65625 217.523438 54.507812 209.628906 64.15625 209.628906 C 73.808594 209.628906 81.660156 217.523438 81.660156 227.226562 C 81.660156 236.933594 73.808594 244.828125 64.15625 244.828125 "/><path style=" stroke:none;fill-rule:nonzero;fill:rgb(20.779419%,12.159729%,9.01947%);fill-opacity:1;" d="M 103.203125 195.953125 C 94.988281 195.953125 88.300781 202.675781 88.300781 210.9375 C 88.300781 219.199219 94.988281 225.917969 103.203125 225.917969 C 111.417969 225.917969 118.101562 219.199219 118.101562 210.9375 C 118.101562 202.675781 111.417969 195.953125 103.203125 195.953125 Z M 103.203125 228.535156 C 93.550781 228.535156 85.699219 220.640625 85.699219 210.9375 C 85.699219 201.230469 93.550781 193.335938 103.203125 193.335938 C 112.851562 193.335938 120.703125 201.230469 120.703125 210.9375 C 120.703125 220.640625 112.851562 228.535156 103.203125 228.535156 "/><path style=" stroke:none;fill-rule:nonzero;fill:rgb(20.779419%,12.159729%,9.01947%);fill-opacity:1;" d="M 64.316406 212.246094 C 63.65625 212.246094 63.089844 211.738281 63.023438 211.0625 C 62.996094 210.785156 62.378906 204.09375 63.675781 194.257812 C 64.878906 185.183594 68.019531 171.644531 76.179688 158.648438 C 76.5625 158.039062 77.367188 157.855469 77.976562 158.242188 C 78.582031 158.628906 78.761719 159.4375 78.378906 160.046875 C 63.242188 184.152344 65.589844 210.546875 65.613281 210.808594 C 65.683594 211.53125 65.160156 212.167969 64.445312 212.238281 C 64.402344 212.242188 64.359375 212.246094 64.316406 212.246094 "/><path style=" stroke:none;fill-rule:nonzero;fill:rgb(20.779419%,12.159729%,9.01947%);fill-opacity:1;" d="M 93.027344 199.570312 C 92.851562 199.570312 92.667969 199.53125 92.492188 199.453125 C 91.957031 199.207031 79.261719 193.078125 75.984375 159.476562 C 75.914062 158.757812 76.4375 158.117188 77.152344 158.046875 C 77.871094 157.976562 78.503906 158.503906 78.574219 159.222656 C 81.707031 191.332031 93.445312 197.015625 93.5625 197.066406 C 94.21875 197.363281 94.511719 198.140625 94.214844 198.796875 C 94 199.28125 93.523438 199.570312 93.027344 199.570312 "/><g clip-rule="nonzero" clip-path="url(#clip3)"><path style=" stroke:none;fill-rule:nonzero;fill:rgb(20.779419%,12.159729%,9.01947%);fill-opacity:1;" d="M 40.257812 149.082031 C 40.261719 149.136719 40.28125 149.246094 40.347656 149.460938 C 41.753906 154.132812 45.585938 157.65625 49.390625 160.859375 C 53.496094 164.324219 57.960938 167.53125 62.761719 167.53125 C 63.058594 167.53125 63.355469 167.519531 63.648438 167.496094 C 66.394531 167.265625 69.113281 165.933594 71.898438 163.441406 C 71.515625 163.453125 71.109375 163.460938 70.679688 163.460938 C 65.550781 163.460938 55.84375 162.304688 48.472656 154.550781 C 48.070312 154.128906 47.996094 153.484375 48.296875 152.980469 C 48.59375 152.476562 49.1875 152.230469 49.75 152.382812 C 49.902344 152.425781 65.1875 156.511719 74.355469 156.511719 C 74.402344 156.511719 74.4375 156.511719 74.480469 156.511719 C 71.910156 151.921875 67.816406 148.25 63.015625 146.273438 C 60.300781 145.160156 57.273438 144.570312 54.253906 144.570312 C 50.742188 144.570312 47.261719 145.355469 44.1875 146.839844 C 43.027344 147.398438 41.882812 148.074219 40.773438 148.726562 C 40.667969 148.789062 40.359375 148.96875 40.257812 149.082031 Z M 62.761719 170.148438 C 57.128906 170.148438 52.203125 166.648438 47.71875 162.867188 C 43.792969 159.558594 39.472656 155.578125 37.855469 150.222656 C 37.75 149.863281 37.523438 149.117188 37.753906 148.332031 C 38.0625 147.289062 38.972656 146.753906 39.460938 146.46875 C 40.613281 145.789062 41.804688 145.085938 43.058594 144.480469 C 46.484375 142.828125 50.355469 141.953125 54.253906 141.953125 C 57.605469 141.953125 60.976562 142.609375 64 143.851562 C 70.007812 146.324219 75.015625 151.183594 77.738281 157.1875 C 77.914062 157.574219 77.890625 158.023438 77.679688 158.386719 C 77.464844 158.757812 77.089844 158.996094 76.667969 159.035156 C 75.96875 159.097656 75.191406 159.128906 74.359375 159.128906 C 74.355469 159.128906 74.355469 159.128906 74.355469 159.128906 C 68.289062 159.128906 59.9375 157.480469 54.519531 156.246094 C 60.398438 160.164062 66.894531 160.847656 70.679688 160.847656 C 73.339844 160.847656 75.09375 160.523438 75.113281 160.519531 C 75.457031 160.457031 75.816406 160.535156 76.101562 160.738281 C 76.386719 160.941406 76.582031 161.253906 76.636719 161.601562 C 76.695312 161.992188 76.582031 162.386719 76.320312 162.679688 C 72.1875 167.320312 68.113281 169.746094 63.863281 170.101562 C 63.5 170.132812 63.128906 170.148438 62.761719 170.148438 "/></g><path style=" stroke:none;fill-rule:nonzero;fill:rgb(20.779419%,12.159729%,9.01947%);fill-opacity:1;" d="M 78.777344 165.40625 C 80.253906 168.84375 82.15625 171.207031 84.546875 172.582031 C 86.378906 173.632812 88.519531 174.148438 91.089844 174.148438 C 94.207031 174.148438 97.472656 173.382812 100.253906 172.636719 C 105.050781 171.347656 110.003906 169.785156 113.242188 166.152344 C 113.394531 165.984375 113.457031 165.894531 113.484375 165.847656 C 113.441406 165.703125 113.238281 165.40625 113.167969 165.304688 C 112.4375 164.242188 111.679688 163.140625 110.867188 162.144531 C 106.78125 157.125 100.492188 153.9375 94.046875 153.621094 C 93.691406 153.605469 93.328125 153.59375 92.972656 153.59375 C 88.160156 153.59375 83.300781 155.191406 79.351562 158.023438 C 87.609375 161.945312 103.324219 164.769531 103.492188 164.800781 C 104.070312 164.902344 104.503906 165.375 104.5625 165.960938 C 104.621094 166.542969 104.28125 167.09375 103.738281 167.308594 C 100.5625 168.550781 97.207031 169.179688 93.761719 169.179688 C 87.375 169.179688 81.992188 167.054688 78.777344 165.40625 Z M 91.089844 176.761719 C 88.054688 176.761719 85.488281 176.136719 83.253906 174.851562 C 79.550781 172.722656 76.878906 168.789062 75.085938 162.828125 C 74.972656 162.453125 75.035156 162.046875 75.25 161.722656 C 75.445312 161.429688 75.75 161.222656 76.097656 161.160156 C 76.445312 161.097656 76.804688 161.175781 77.09375 161.382812 C 77.164062 161.433594 84.40625 166.5625 93.761719 166.566406 C 95.046875 166.566406 96.316406 166.46875 97.566406 166.273438 C 91.40625 164.933594 81.597656 162.457031 76.304688 159.375 C 75.941406 159.160156 75.699219 158.78125 75.664062 158.359375 C 75.625 157.9375 75.792969 157.523438 76.113281 157.246094 C 80.757812 153.261719 86.902344 150.980469 92.972656 150.980469 C 93.371094 150.980469 93.773438 150.988281 94.171875 151.007812 C 101.339844 151.359375 108.335938 154.902344 112.882812 160.484375 C 113.761719 161.566406 114.546875 162.710938 115.308594 163.816406 C 115.628906 164.285156 116.226562 165.15625 116.070312 166.230469 C 115.945312 167.042969 115.429688 167.625 115.179688 167.902344 C 111.460938 172.070312 105.875 173.835938 100.925781 175.164062 C 97.980469 175.953125 94.507812 176.761719 91.089844 176.761719 "/><g style="fill:rgb(20.779419%,12.159729%,9.01947%);fill-opacity:1;"><g transform="translate(132.510105, 208.6217)"><path style="stroke:none;" d="M 6.953125 -4.75 C 3.515625 -8.125 1.796875 -12.394531 1.796875 -17.5625 C 1.796875 -22.738281 3.523438 -27.007812 6.984375 -30.375 C 10.441406 -33.75 14.671875 -35.4375 19.671875 -35.4375 C 23.472656 -35.4375 26.851562 -34.46875 29.8125 -32.53125 C 32.769531 -30.601562 34.878906 -27.882812 36.140625 -24.375 L 27.6875 -24.375 C 26.113281 -27.445312 23.441406 -28.984375 19.671875 -28.984375 C 16.503906 -28.984375 13.925781 -27.941406 11.9375 -25.859375 C 9.957031 -23.773438 8.96875 -21.003906 8.96875 -17.546875 C 8.96875 -14.085938 9.957031 -11.316406 11.9375 -9.234375 C 13.925781 -7.148438 16.503906 -6.109375 19.671875 -6.109375 C 23.410156 -6.109375 26.082031 -7.644531 27.6875 -10.71875 L 36.140625 -10.71875 C 34.878906 -7.207031 32.769531 -4.492188 29.8125 -2.578125 C 26.851562 -0.660156 23.472656 0.296875 19.671875 0.296875 C 14.628906 0.296875 10.390625 -1.382812 6.953125 -4.75 Z M 6.953125 -4.75 "/></g></g><g style="fill:rgb(20.779419%,12.159729%,9.01947%);fill-opacity:1;"><g transform="translate(171.008199, 208.6217)"><path style="stroke:none;" d="M 10.8125 -37.046875 L 10.8125 -23.578125 C 12.582031 -26.617188 15.453125 -28.140625 19.421875 -28.140625 C 22.597656 -28.140625 25.1875 -27.09375 27.1875 -25 C 29.1875 -22.914062 30.1875 -20.023438 30.1875 -16.328125 L 30.1875 0 L 23.171875 0 L 23.171875 -15.3125 C 23.171875 -17.488281 22.617188 -19.148438 21.515625 -20.296875 C 20.421875 -21.453125 18.921875 -22.03125 17.015625 -22.03125 C 15.117188 -22.03125 13.609375 -21.453125 12.484375 -20.296875 C 11.367188 -19.148438 10.8125 -17.488281 10.8125 -15.3125 L 10.8125 0 L 3.75 0 L 3.75 -37.046875 Z M 10.8125 -37.046875 "/></g></g><g style="fill:rgb(20.779419%,12.159729%,9.01947%);fill-opacity:1;"><g transform="translate(204.70029, 208.6217)"><path style="stroke:none;" d="M 15.46875 0.40625 C 11.425781 0.40625 8.132812 -0.898438 5.59375 -3.515625 C 3.0625 -6.140625 1.796875 -9.601562 1.796875 -13.90625 C 1.796875 -18.21875 3.070312 -21.664062 5.625 -24.25 C 8.1875 -26.84375 11.492188 -28.140625 15.546875 -28.140625 C 19.597656 -28.140625 22.925781 -26.878906 25.53125 -24.359375 C 28.132812 -21.835938 29.4375 -18.472656 29.4375 -14.265625 C 29.4375 -13.296875 29.367188 -12.394531 29.234375 -11.5625 L 9.015625 -11.5625 C 9.179688 -9.757812 9.847656 -8.304688 11.015625 -7.203125 C 12.179688 -6.109375 13.664062 -5.5625 15.46875 -5.5625 C 17.90625 -5.5625 19.707031 -6.5625 20.875 -8.5625 L 28.484375 -8.5625 C 27.679688 -5.925781 26.128906 -3.769531 23.828125 -2.09375 C 21.523438 -0.425781 18.738281 0.40625 15.46875 0.40625 Z M 22.125 -16.125 C 22.03125 -17.957031 21.351562 -19.421875 20.09375 -20.515625 C 18.84375 -21.617188 17.332031 -22.171875 15.5625 -22.171875 C 13.800781 -22.171875 12.328125 -21.617188 11.140625 -20.515625 C 9.953125 -19.421875 9.242188 -17.957031 9.015625 -16.125 Z M 22.125 -16.125 "/></g></g><g style="fill:rgb(20.779419%,12.159729%,9.01947%);fill-opacity:1;"><g transform="translate(235.939317, 208.6217)"><path style="stroke:none;" d="M 15.46875 0.40625 C 11.425781 0.40625 8.132812 -0.898438 5.59375 -3.515625 C 3.0625 -6.140625 1.796875 -9.601562 1.796875 -13.90625 C 1.796875 -18.21875 3.070312 -21.664062 5.625 -24.25 C 8.1875 -26.84375 11.492188 -28.140625 15.546875 -28.140625 C 19.597656 -28.140625 22.925781 -26.878906 25.53125 -24.359375 C 28.132812 -21.835938 29.4375 -18.472656 29.4375 -14.265625 C 29.4375 -13.296875 29.367188 -12.394531 29.234375 -11.5625 L 9.015625 -11.5625 C 9.179688 -9.757812 9.847656 -8.304688 11.015625 -7.203125 C 12.179688 -6.109375 13.664062 -5.5625 15.46875 -5.5625 C 17.90625 -5.5625 19.707031 -6.5625 20.875 -8.5625 L 28.484375 -8.5625 C 27.679688 -5.925781 26.128906 -3.769531 23.828125 -2.09375 C 21.523438 -0.425781 18.738281 0.40625 15.46875 0.40625 Z M 22.125 -16.125 C 22.03125 -17.957031 21.351562 -19.421875 20.09375 -20.515625 C 18.84375 -21.617188 17.332031 -22.171875 15.5625 -22.171875 C 13.800781 -22.171875 12.328125 -21.617188 11.140625 -20.515625 C 9.953125 -19.421875 9.242188 -17.957031 9.015625 -16.125 Z M 22.125 -16.125 "/></g></g><g style="fill:rgb(20.779419%,12.159729%,9.01947%);fill-opacity:1;"><g transform="translate(267.178344, 208.6217)"><path style="stroke:none;" d="M 10.8125 -27.734375 L 10.8125 -22.828125 C 12.675781 -26.367188 15.378906 -28.140625 18.921875 -28.140625 L 18.921875 -20.921875 L 17.171875 -20.921875 C 15.066406 -20.921875 13.476562 -20.394531 12.40625 -19.34375 C 11.34375 -18.289062 10.8125 -16.484375 10.8125 -13.921875 L 10.8125 0 L 3.75 0 L 3.75 -27.734375 Z M 10.8125 -27.734375 "/></g></g><g style="fill:rgb(20.779419%,12.159729%,9.01947%);fill-opacity:1;"><g transform="translate(287.353545, 208.6217)"><path style="stroke:none;" d="M 11.21875 -0.5 L 0.34375 -27.734375 L 8.265625 -27.734375 L 15.3125 -8.015625 L 22.78125 -27.734375 L 30.140625 -27.734375 L 12.8125 13.109375 L 5.453125 13.109375 Z M 11.21875 -0.5 "/></g></g></g></svg>